<svg xmlns="http://www.w3.org/2000/svg" viewBox="0 0 1200 800" width="1200" height="800">
  <defs>
    <!-- Glow filter for contour lines -->
    <filter id="glow-cyan" x="-20%" y="-20%" width="140%" height="140%">
      <feGaussianBlur stdDeviation="3" result="blur1"/>
      <feGaussianBlur stdDeviation="6" result="blur2"/>
      <feMerge>
        <feMergeNode in="blur2"/>
        <feMergeNode in="blur1"/>
        <feMergeNode in="SourceGraphic"/>
      </feMerge>
    </filter>
    <filter id="glow-subtle" x="-10%" y="-10%" width="120%" height="120%">
      <feGaussianBlur stdDeviation="1.5" result="blur1"/>
      <feMerge>
        <feMergeNode in="blur1"/>
        <feMergeNode in="SourceGraphic"/>
      </feMerge>
    </filter>
    <filter id="glow-strong" x="-30%" y="-30%" width="160%" height="160%">
      <feGaussianBlur stdDeviation="5" result="blur1"/>
      <feGaussianBlur stdDeviation="10" result="blur2"/>
      <feMerge>
        <feMergeNode in="blur2"/>
        <feMergeNode in="blur1"/>
        <feMergeNode in="SourceGraphic"/>
      </feMerge>
    </filter>
    <!-- Radial vignette -->
    <radialGradient id="vignette" cx="50%" cy="50%" r="70%">
      <stop offset="0%" stop-color="#0a1628" stop-opacity="0"/>
      <stop offset="60%" stop-color="#0a1628" stop-opacity="0"/>
      <stop offset="100%" stop-color="#050d18" stop-opacity="0.8"/>
    </radialGradient>
    <!-- Gradient for background -->
    <linearGradient id="bg-grad" x1="0" y1="0" x2="1" y2="1">
      <stop offset="0%" stop-color="#0a1628"/>
      <stop offset="50%" stop-color="#0d1f3c"/>
      <stop offset="100%" stop-color="#0a1628"/>
    </linearGradient>
    <!-- Ocean gradient -->
    <radialGradient id="ocean-glow" cx="52%" cy="50%" r="40%">
      <stop offset="0%" stop-color="#0d2847" stop-opacity="0.5"/>
      <stop offset="100%" stop-color="#0a1628" stop-opacity="0"/>
    </radialGradient>
    <!-- Kenya highlight glow -->
    <radialGradient id="kenya-glow" cx="50%" cy="50%" r="50%">
      <stop offset="0%" stop-color="#00e5ff" stop-opacity="0.15"/>
      <stop offset="100%" stop-color="#00e5ff" stop-opacity="0"/>
    </radialGradient>
  </defs>

  <!-- Background -->
  <rect width="1200" height="800" fill="url(#bg-grad)"/>
  <rect width="1200" height="800" fill="url(#ocean-glow)"/>

  <!-- UTM Grid Lines - major -->
  <g stroke="#1a3a5c" stroke-width="0.5" opacity="0.3">
    <!-- Vertical grid lines (longitude) -->
    <line x1="50" y1="40" x2="50" y2="760"/>
    <line x1="150" y1="40" x2="150" y2="760"/>
    <line x1="250" y1="40" x2="250" y2="760"/>
    <line x1="350" y1="40" x2="350" y2="760"/>
    <line x1="450" y1="40" x2="450" y2="760"/>
    <line x1="550" y1="40" x2="550" y2="760"/>
    <line x1="650" y1="40" x2="650" y2="760"/>
    <line x1="750" y1="40" x2="750" y2="760"/>
    <line x1="850" y1="40" x2="850" y2="760"/>
    <line x1="950" y1="40" x2="950" y2="760"/>
    <line x1="1050" y1="40" x2="1050" y2="760"/>
    <line x1="1150" y1="40" x2="1150" y2="760"/>
    <!-- Horizontal grid lines (latitude) -->
    <line x1="30" y1="100" x2="1170" y2="100"/>
    <line x1="30" y1="200" x2="1170" y2="200"/>
    <line x1="30" y1="300" x2="1170" y2="300"/>
    <line x1="30" y1="400" x2="1170" y2="400"/>
    <line x1="30" y1="500" x2="1170" y2="500"/>
    <line x1="30" y1="600" x2="1170" y2="600"/>
    <line x1="30" y1="700" x2="1170" y2="700"/>
  </g>

  <!-- UTM Grid Lines - minor -->
  <g stroke="#122a44" stroke-width="0.25" opacity="0.2">
    <line x1="100" y1="40" x2="100" y2="760"/>
    <line x1="200" y1="40" x2="200" y2="760"/>
    <line x1="300" y1="40" x2="300" y2="760"/>
    <line x1="400" y1="40" x2="400" y2="760"/>
    <line x1="500" y1="40" x2="500" y2="760"/>
    <line x1="600" y1="40" x2="600" y2="760"/>
    <line x1="700" y1="40" x2="700" y2="760"/>
    <line x1="800" y1="40" x2="800" y2="760"/>
    <line x1="900" y1="40" x2="900" y2="760"/>
    <line x1="1000" y1="40" x2="1000" y2="760"/>
    <line x1="1100" y1="40" x2="1100" y2="760"/>
    <line x1="30" y1="50" x2="1170" y2="50"/>
    <line x1="30" y1="150" x2="1170" y2="150"/>
    <line x1="30" y1="250" x2="1170" y2="250"/>
    <line x1="30" y1="350" x2="1170" y2="350"/>
    <line x1="30" y1="450" x2="1170" y2="450"/>
    <line x1="30" y1="550" x2="1170" y2="550"/>
    <line x1="30" y1="650" x2="1170" y2="650"/>
    <line x1="30" y1="750" x2="1170" y2="750"/>
  </g>

  <!-- Equator line -->
  <line x1="30" y1="400" x2="1170" y2="400" stroke="#00bcd4" stroke-width="0.8" opacity="0.25" stroke-dasharray="8,4"/>
  <!-- Prime Meridian (shifted for Africa center) -->
  <line x1="620" y1="40" x2="620" y2="760" stroke="#00bcd4" stroke-width="0.8" opacity="0.2" stroke-dasharray="8,4"/>

  <!-- ============================================ -->
  <!-- CONTINENT FILLS - subtle landmass shading    -->
  <!-- ============================================ -->
  <g opacity="0.15" fill="#0e3d5e" stroke="none">
    <!-- Africa - centered/prominent -->
    <path d="M580,280 C590,275 610,270 625,268 C640,266 655,270 665,275 C670,280 675,290 678,300 C680,310 682,320 680,330 C678,340 675,350 672,360 C670,370 668,380 665,390 C662,400 658,410 655,420 C652,430 650,440 648,450 C646,460 643,470 640,480 C637,490 633,500 630,510 C627,520 623,530 618,540 C613,548 607,555 600,560 C593,565 585,568 578,570 C570,572 562,570 555,567 C548,564 542,558 537,550 C532,542 528,533 525,524 C522,515 520,505 518,495 C516,485 515,475 516,465 C517,455 518,445 520,435 C522,425 524,415 526,405 C528,395 530,385 532,375 C534,365 537,355 540,345 C543,335 547,325 550,315 C553,305 557,298 562,292 C567,286 573,282 580,280Z"/>
    <!-- Europe -->
    <path d="M530,180 C540,175 555,172 570,170 C580,168 590,170 598,175 C605,178 610,185 615,192 C618,198 620,205 618,212 C616,218 612,224 606,228 C600,232 593,235 585,237 C577,239 568,240 560,240 C552,240 544,238 538,234 C532,230 528,224 526,218 C524,212 524,205 525,198 C526,192 528,186 530,180Z"/>
    <!-- Asia -->
    <path d="M650,160 C680,150 720,142 760,140 C800,138 840,140 875,148 C905,155 930,168 950,185 C965,198 975,215 980,235 C984,252 982,270 975,285 C968,298 956,308 942,315 C928,322 912,325 896,326 C880,327 864,325 848,320 C832,315 818,307 805,298 C792,289 780,278 768,268 C756,258 744,250 730,245 C716,240 700,240 685,242 C670,244 658,248 648,255 C640,260 635,268 632,276 C630,270 630,262 632,254 C635,242 640,230 648,218 C655,207 663,198 672,190 C680,183 688,177 696,172 C700,168 700,164 695,160 C690,157 682,158 675,160 C668,162 660,163 650,160Z"/>
    <!-- North America -->
    <path d="M180,170 C200,155 230,145 260,140 C290,135 320,138 345,148 C365,156 380,170 390,188 C398,203 400,220 398,238 C396,254 390,268 380,280 C370,292 358,300 344,306 C330,312 315,314 300,314 C285,314 270,310 258,304 C246,298 236,288 228,278 C220,268 214,256 210,244 C206,232 202,220 198,208 C194,196 190,185 185,176 C182,172 180,170 180,170Z"/>
    <!-- South America -->
    <path d="M310,380 C320,370 335,365 350,368 C362,370 372,378 380,390 C388,402 392,416 394,432 C396,448 395,465 390,480 C385,495 378,508 368,518 C358,528 346,535 333,538 C320,541 307,540 296,534 C285,528 277,518 272,506 C267,494 265,480 266,466 C267,452 270,438 276,425 C282,412 290,400 300,390 C305,385 308,382 310,380Z"/>
    <!-- Australia -->
    <path d="M870,430 C885,420 905,418 922,425 C935,430 945,442 950,458 C955,472 954,488 948,502 C942,514 932,524 920,530 C908,534 894,534 882,528 C870,522 862,512 858,498 C854,484 855,468 860,455 C864,445 868,436 870,430Z"/>
    <!-- Greenland -->
    <path d="M370,100 C380,92 395,88 408,92 C418,95 425,104 428,116 C430,126 428,138 422,148 C416,156 408,162 398,164 C388,166 378,163 370,156 C362,149 358,140 358,130 C358,120 362,110 370,100Z"/>
  </g>

  <!-- ============================================ -->
  <!-- TOPOGRAPHIC CONTOUR LINES                    -->
  <!-- Multiple elevation bands around landmasses   -->
  <!-- ============================================ -->

  <!-- Outermost contour band - sea level / coastal -->
  <g fill="none" stroke="#005f73" stroke-width="1.2" opacity="0.5" filter="url(#glow-subtle)">
    <!-- Africa outer -->
    <path d="M568,270 C578,264 598,258 615,256 C632,254 650,258 662,264 C670,270 676,282 680,296 C684,310 686,324 684,338 C682,352 678,366 674,380 C670,394 666,408 662,422 C658,436 654,450 650,462 C646,474 640,486 634,498 C628,510 620,522 612,532 C604,542 594,550 583,556 C572,562 560,565 548,564 C536,563 525,558 516,550 C507,542 500,532 495,520 C490,508 487,494 485,480 C483,466 483,452 485,438 C487,424 490,410 494,396 C498,382 503,368 508,354 C513,340 519,326 526,314 C533,302 541,292 550,284 C556,278 562,274 568,270Z"/>
    <!-- Europe outer -->
    <path d="M520,168 C532,162 548,158 565,156 C578,155 590,158 600,164 C608,170 614,180 618,192 C621,202 622,214 620,225 C617,234 612,242 604,248 C596,254 586,258 575,260 C564,262 552,261 542,258 C532,254 524,248 518,240 C512,232 508,222 506,212 C504,202 506,192 510,183 C514,176 517,172 520,168Z"/>
    <!-- Asia outer -->
    <path d="M640,148 C672,136 714,128 758,126 C802,124 844,128 880,138 C912,148 938,164 956,185 C970,202 980,222 984,245 C987,265 984,285 976,302 C968,318 956,332 940,342 C924,352 906,358 888,360 C870,362 852,358 835,352 C818,345 802,336 788,324 C774,312 762,298 750,286 C738,274 725,264 712,258 C698,252 682,250 666,254 C652,258 640,265 632,276 C626,284 622,294 620,304 C618,294 618,282 622,268 C627,252 634,236 644,222 C654,208 666,196 680,186 C692,178 700,170 704,162 C707,155 704,148 696,144 C688,140 678,142 668,146 C656,150 644,150 640,148Z"/>
    <!-- North America outer -->
    <path d="M168,158 C192,140 226,128 260,124 C294,120 326,124 352,136 C374,146 392,162 402,184 C410,202 414,224 412,246 C410,266 402,284 390,298 C378,312 362,324 344,332 C326,340 306,344 286,344 C266,344 248,338 232,328 C216,318 204,304 194,288 C186,272 180,254 176,236 C172,218 168,200 164,184 C162,174 164,164 168,158Z"/>
    <!-- South America outer -->
    <path d="M298,358 C312,346 330,340 348,344 C363,347 376,358 386,374 C396,390 402,410 404,432 C406,454 404,476 398,496 C392,514 382,530 370,542 C358,554 344,562 328,565 C312,568 296,566 282,558 C268,550 258,538 252,522 C246,506 244,488 246,470 C248,452 254,434 264,418 C274,402 286,388 298,358Z"/>
    <!-- Australia outer -->
    <path d="M858,412 C876,400 900,398 920,406 C936,414 948,428 954,448 C958,466 956,486 948,504 C940,520 928,532 914,540 C900,546 884,546 870,540 C856,532 846,520 840,504 C834,488 834,470 838,454 C842,440 850,426 858,412Z"/>
  </g>

  <!-- Second contour band - low elevation -->
  <g fill="none" stroke="#00889a" stroke-width="1.0" opacity="0.55" filter="url(#glow-subtle)">
    <!-- Africa low -->
    <path d="M575,278 C584,272 602,266 618,264 C633,262 648,266 658,272 C665,278 670,288 674,300 C677,312 679,325 677,338 C675,350 672,363 668,376 C664,389 660,402 656,415 C652,428 648,440 644,452 C640,464 635,475 630,486 C625,497 618,508 611,518 C604,527 596,534 587,539 C578,544 568,546 558,544 C548,542 540,536 533,528 C526,520 521,510 518,498 C515,486 514,474 515,462 C516,450 519,438 522,426 C525,414 530,402 535,390 C540,378 546,366 553,356 C560,346 568,337 576,330 C580,326 574,310 575,278Z"/>
    <!-- East African Highlands contour (Kenya area - more prominent) -->
    <path d="M610,340 C616,335 624,332 632,334 C638,336 643,342 646,350 C648,358 647,367 644,375 C641,383 635,390 628,394 C621,398 613,398 606,394 C599,390 594,383 592,375 C590,367 591,358 595,350 C599,344 604,340 610,340Z"/>
    <!-- Europe low -->
    <path d="M525,175 C536,170 550,166 565,165 C576,164 586,167 594,172 C600,177 605,185 608,194 C610,202 610,212 608,220 C605,227 600,233 594,238 C588,242 580,245 572,246 C564,247 555,246 548,243 C541,240 535,235 530,228 C526,222 523,214 522,206 C521,198 523,190 525,175Z"/>
    <!-- Asia low -->
    <path d="M648,155 C678,144 718,136 758,134 C796,132 834,136 866,145 C896,154 920,168 938,186 C950,200 960,218 963,238 C965,256 962,274 956,290 C948,304 938,316 924,324 C910,332 894,336 878,338 C862,338 846,335 832,328 C818,322 804,312 792,300 C780,288 770,276 758,266 C746,256 734,248 720,244 C706,240 690,240 674,244 C660,248 648,256 640,268 C634,278 630,290 628,302 C626,292 628,278 632,264 C638,248 646,234 656,220 C666,208 678,198 692,190 C702,184 708,176 710,168 C712,160 708,154 700,150 C692,148 682,150 672,154 C662,158 652,157 648,155Z"/>
    <!-- North America low -->
    <path d="M178,166 C200,150 232,140 262,136 C292,132 320,136 344,146 C364,155 380,170 390,188 C398,204 402,222 400,242 C398,260 392,276 382,290 C372,302 358,312 342,318 C326,324 308,326 290,326 C272,326 256,322 242,314 C228,306 216,294 208,280 C200,266 194,250 190,234 C186,218 182,202 180,188 C178,178 178,170 178,166Z"/>
    <!-- Rockies contour -->
    <path d="M270,190 C275,185 282,182 288,184 C294,186 298,192 300,200 C302,208 300,217 296,224 C292,230 286,234 280,234 C274,234 268,230 265,224 C262,217 262,208 265,200 C267,195 268,192 270,190Z"/>
    <!-- South America low -->
    <path d="M306,368 C318,358 334,352 350,356 C362,359 374,368 382,382 C390,396 396,414 398,434 C400,454 398,474 392,492 C386,508 378,522 366,532 C354,542 340,548 326,550 C312,552 298,548 288,540 C278,532 270,520 266,506 C262,492 262,476 264,460 C266,444 272,428 280,414 C288,400 298,388 306,368Z"/>
    <!-- Andes contour -->
    <path d="M338,400 C342,395 348,392 354,394 C359,396 363,402 364,410 C365,418 363,426 358,432 C353,436 348,438 342,436 C336,434 332,428 331,420 C330,412 332,405 338,400Z"/>
    <!-- Australia low -->
    <path d="M864,420 C880,410 902,408 918,416 C930,424 940,436 944,454 C948,470 946,488 940,502 C934,514 924,524 912,530 C900,534 886,534 874,528 C862,522 854,512 848,498 C842,484 842,468 846,454 C850,442 856,430 864,420Z"/>
  </g>

  <!-- Third contour band - mid elevation -->
  <g fill="none" stroke="#00acc1" stroke-width="0.9" opacity="0.6" filter="url(#glow-cyan)">
    <!-- Africa mid -->
    <path d="M582,286 C590,280 606,274 622,272 C636,270 648,274 656,280 C662,286 666,294 669,306 C671,316 672,328 670,340 C668,352 665,364 661,376 C657,388 653,400 649,412 C645,424 641,436 637,447 C633,458 628,468 623,478 C618,488 612,498 605,506 C598,514 590,520 581,523 C572,526 564,524 556,520 C548,516 542,508 538,498 C534,488 532,478 532,466 C532,454 534,442 537,430 C540,418 545,406 550,394 C555,382 562,370 569,360 C576,350 582,342 586,336 C588,332 586,310 582,286Z"/>
    <!-- Ethiopian Highlands contour -->
    <path d="M600,310 C606,305 614,302 622,304 C628,306 633,312 636,320 C638,328 636,337 632,344 C628,350 622,354 615,355 C608,356 602,353 597,348 C592,342 590,334 591,326 C592,318 596,312 600,310Z"/>
    <!-- Kenya Highlands contour (prominent) -->
    <path d="M614,346 C619,342 626,340 632,342 C637,344 641,349 642,356 C643,363 641,370 637,376 C633,381 627,384 621,383 C615,382 610,378 608,372 C606,366 607,358 610,352 C612,349 613,347 614,346Z"/>
    <!-- Mt Kenya peak contour -->
    <path d="M620,354 C623,352 627,351 630,353 C633,355 635,359 635,363 C635,367 633,371 630,373 C627,374 623,373 621,370 C619,367 618,362 619,358 C619,356 620,355 620,354Z"/>
    <!-- Europe mid -->
    <path d="M530,182 C540,178 552,174 567,173 C576,172 584,175 590,180 C596,185 600,192 602,200 C604,208 603,216 600,222 C596,228 590,232 584,234 C577,236 570,235 563,233 C556,230 550,226 546,220 C542,214 539,206 538,198 C537,192 538,186 530,182Z"/>
    <!-- Asia mid -->
    <path d="M656,162 C684,152 722,144 760,142 C796,140 830,144 860,152 C886,160 908,174 924,192 C936,206 944,222 946,240 C948,256 944,272 938,286 C930,298 920,308 906,314 C892,320 876,322 860,320 C844,318 830,312 816,302 C802,292 790,280 778,270 C766,260 754,252 740,248 C726,244 712,244 698,248 C684,252 672,260 664,272 C658,282 654,292 652,304 C650,294 652,280 658,266 C664,250 674,236 686,224 C698,212 712,202 724,196 C732,192 736,186 736,178 C736,172 730,166 722,164 C714,162 704,164 694,168 C682,172 668,168 656,162Z"/>
    <!-- Himalayas contour -->
    <path d="M738,230 C744,224 752,222 760,224 C767,226 772,232 774,240 C776,248 774,257 770,264 C766,270 760,274 752,274 C744,274 738,270 734,264 C730,257 728,248 730,240 C732,234 735,230 738,230Z"/>
    <!-- North America mid -->
    <path d="M188,174 C208,158 238,148 266,144 C294,140 320,144 342,154 C360,162 376,176 384,194 C392,210 396,228 394,248 C392,264 386,278 376,290 C366,300 352,308 336,312 C320,316 304,316 288,312 C272,308 258,300 246,288 C236,276 228,262 224,246 C220,230 216,214 214,200 C212,190 210,182 188,174Z"/>
    <!-- South America mid -->
    <path d="M314,378 C324,370 340,364 354,368 C364,371 374,380 382,394 C388,408 392,424 394,442 C396,460 394,478 388,494 C382,508 374,520 364,528 C354,536 342,540 330,540 C318,540 308,536 300,528 C292,520 286,508 284,494 C282,480 282,464 286,448 C290,432 296,418 304,406 C308,400 312,394 314,378Z"/>
    <!-- Australia mid -->
    <path d="M870,428 C884,420 904,418 916,424 C926,430 934,442 938,458 C940,472 938,488 932,500 C926,510 918,518 908,522 C898,524 886,522 876,516 C866,510 860,500 856,488 C852,476 852,464 856,452 C860,442 866,434 870,428Z"/>
  </g>

  <!-- Fourth contour band - high elevation -->
  <g fill="none" stroke="#00d4e8" stroke-width="0.8" opacity="0.65" filter="url(#glow-cyan)">
    <!-- Africa high -->
    <path d="M590,296 C598,290 610,284 624,282 C636,280 646,284 652,290 C656,296 660,304 662,314 C664,324 664,336 662,348 C660,358 656,370 652,382 C648,394 644,406 640,418 C636,430 631,440 626,450 C621,460 616,470 610,478 C604,486 596,492 588,495 C580,498 572,496 566,490 C560,484 556,476 554,466 C552,456 552,446 554,436 C556,426 560,416 566,406 C572,396 578,386 584,376 C590,366 594,356 596,348 C598,340 594,320 590,296Z"/>
    <!-- East African Rift Valley contours -->
    <path d="M606,320 C610,316 616,314 622,316 C626,318 630,323 631,330 C632,337 630,344 626,350 C622,354 616,356 610,354 C604,352 600,346 599,340 C598,334 600,326 606,320Z"/>
    <path d="M616,350 C620,347 624,346 628,348 C631,350 633,355 633,360 C633,365 631,370 627,372 C623,374 619,373 616,370 C613,366 612,360 614,355 C615,352 615,351 616,350Z"/>
    <!-- Himalayas high -->
    <path d="M742,236 C748,232 756,230 762,232 C768,234 772,240 772,248 C772,256 770,264 766,270 C762,274 756,276 750,274 C744,272 740,266 738,260 C736,254 738,246 742,236Z"/>
    <!-- Andes high -->
    <path d="M342,408 C346,404 352,402 356,404 C360,406 362,412 362,418 C362,424 360,430 356,434 C352,436 346,436 342,432 C338,428 336,422 338,416 C339,412 340,410 342,408Z"/>
    <!-- Rockies high -->
    <path d="M274,196 C278,192 284,190 288,192 C292,194 294,198 294,204 C294,210 292,216 288,220 C284,222 278,222 275,218 C272,214 270,208 271,202 C271,200 272,198 274,196Z"/>
    <!-- Alps -->
    <path d="M550,196 C554,192 560,190 564,192 C568,194 570,198 570,204 C570,210 568,214 564,216 C560,218 554,217 551,214 C548,210 546,204 548,198 C549,196 549,196 550,196Z"/>
  </g>

  <!-- Fifth contour band - peak elevation -->
  <g fill="none" stroke="#00f0ff" stroke-width="0.7" opacity="0.7" filter="url(#glow-cyan)">
    <!-- Africa peaks - Kilimanjaro, Mt Kenya, Ruwenzori -->
    <path d="M622,348 C625,346 628,346 630,348 C632,350 632,354 631,358 C630,361 628,363 625,362 C622,361 620,358 620,354 C620,351 621,349 622,348Z"/>
    <ellipse cx="608" cy="330" rx="4" ry="5"/>
    <ellipse cx="636" cy="360" rx="3" ry="4"/>
    <!-- Himalaya peaks -->
    <ellipse cx="754" cy="252" rx="5" ry="6"/>
    <ellipse cx="762" cy="244" rx="3" ry="4"/>
    <!-- Andes peaks -->
    <ellipse cx="352" cy="418" rx="4" ry="5"/>
    <ellipse cx="358" cy="424" rx="3" ry="3"/>
    <!-- Rockies peaks -->
    <ellipse cx="282" cy="206" rx="4" ry="5"/>
    <!-- Alps peaks -->
    <ellipse cx="558" cy="204" rx="3" ry="4"/>
  </g>

  <!-- Peak markers - brightest points -->
  <g fill="#00f5ff" opacity="0.8" filter="url(#glow-strong)">
    <circle cx="624" cy="356" r="1.5"/>  <!-- Mt Kenya -->
    <circle cx="758" cy="250" r="1.5"/>  <!-- Everest region -->
    <circle cx="354" cy="420" r="1.5"/>  <!-- Aconcagua region -->
    <circle cx="282" cy="206" r="1.2"/>  <!-- Rocky Mountain peak -->
    <circle cx="558" cy="204" r="1.2"/>  <!-- Mont Blanc -->
  </g>

  <!-- ============================================ -->
  <!-- COASTLINE DETAIL - continent outlines        -->
  <!-- ============================================ -->
  <g fill="none" stroke="#00bcd4" stroke-width="1.4" opacity="0.7" filter="url(#glow-cyan)">
    <!-- Africa coastline -->
    <path d="M570,272 C580,266 600,260 618,258 C635,256 652,260 664,266 C672,272 678,284 682,298 C686,312 688,326 686,340 C684,354 680,368 676,382 C672,396 668,410 664,424 C660,438 656,452 650,464 C644,476 638,488 630,500 C622,512 614,522 604,530 C594,538 582,544 570,546 C558,548 546,544 536,536 C526,528 518,518 512,506 C506,494 502,480 500,466 C498,452 498,438 500,424 C502,410 506,396 512,382 C518,368 524,354 532,340 C540,326 548,314 556,304 C562,296 566,290 570,272Z"/>
    <!-- Europe coastline -->
    <path d="M522,172 C534,166 550,162 568,160 C580,159 592,162 602,168 C610,174 616,184 620,196 C622,206 622,218 620,228 C617,236 612,244 604,250 C596,256 586,260 576,262 C566,264 554,262 544,258 C534,254 526,246 520,238 C514,230 510,220 508,210 C506,200 508,190 512,182 C516,176 520,174 522,172Z"/>
    <!-- Iberian Peninsula detail -->
    <path d="M510,220 C506,224 502,230 500,236 C498,240 500,244 504,244 C508,244 512,240 514,236 C516,232 514,226 510,220Z"/>
    <!-- Asia coastline -->
    <path d="M642,152 C674,140 716,132 760,130 C804,128 844,132 878,142 C910,152 936,168 954,188 C968,204 978,224 982,248 C985,268 982,288 974,304 C966,320 954,334 938,344 C922,354 904,360 886,362 C868,364 850,360 834,354 C818,346 804,336 790,324 C776,312 764,298 752,286 C740,274 728,264 714,258 C700,252 684,250 668,254 C654,258 642,266 634,278 C628,288 624,298 622,310 C620,300 620,286 624,272 C630,256 638,240 648,226 C658,212 670,200 684,192 C694,186 700,178 702,170 C704,162 700,156 692,152 C684,148 674,150 664,154 C654,158 646,156 642,152Z"/>
    <!-- Japanese archipelago -->
    <path d="M920,230 C924,224 928,222 932,226 C934,230 934,238 932,244 C930,248 926,250 922,248 C918,244 918,238 920,230Z"/>
    <!-- North America coastline -->
    <path d="M172,162 C196,144 230,132 264,128 C298,124 330,128 356,140 C378,150 396,168 406,190 C414,210 418,232 416,254 C414,274 406,292 394,306 C382,320 366,332 348,340 C330,348 310,352 290,352 C270,352 252,346 236,336 C220,326 206,312 196,296 C188,280 182,262 178,244 C174,226 170,208 168,192 C166,180 168,170 172,162Z"/>
    <!-- Greenland coastline -->
    <path d="M372,104 C382,96 398,92 410,96 C420,100 428,110 430,122 C432,134 430,146 424,156 C418,164 408,170 398,172 C388,174 378,170 370,162 C362,154 358,144 358,132 C358,120 364,110 372,104Z"/>
    <!-- South America coastline -->
    <path d="M302,362 C316,350 334,344 352,348 C366,352 378,362 388,378 C398,394 404,414 406,436 C408,458 406,480 400,500 C394,518 384,534 372,546 C360,558 346,566 330,568 C314,570 298,566 284,558 C270,550 260,538 254,522 C248,506 246,488 248,470 C250,452 256,434 266,418 C276,402 288,388 302,362Z"/>
    <!-- Australia coastline -->
    <path d="M862,416 C880,404 904,402 922,410 C938,418 950,434 956,454 C960,472 958,492 950,508 C942,522 930,534 916,540 C902,546 886,546 872,538 C858,530 848,518 842,502 C836,486 836,468 840,452 C844,438 852,424 862,416Z"/>
    <!-- New Zealand -->
    <path d="M976,500 C980,494 986,492 990,496 C993,500 992,508 990,514 C988,518 984,520 980,518 C976,514 974,508 976,500Z"/>
    <!-- Madagascar -->
    <path d="M650,460 C654,454 660,452 664,456 C667,460 668,468 666,474 C664,478 660,480 656,478 C652,476 650,470 650,464 C650,462 650,461 650,460Z"/>
    <!-- Indonesia / SE Asia islands -->
    <path d="M790,360 C796,356 804,354 812,358 C818,362 820,370 818,376 C814,380 808,382 802,380 C796,376 792,370 790,360Z"/>
    <path d="M830,370 C836,366 844,364 850,368 C855,372 856,380 852,386 C848,390 842,390 836,386 C830,382 828,376 830,370Z"/>
    <!-- Iceland -->
    <path d="M480,140 C484,136 490,134 494,136 C498,138 500,142 498,146 C496,150 492,152 488,150 C484,148 480,144 480,140Z"/>
  </g>

  <!-- ============================================ -->
  <!-- DEEP OCEAN CONTOUR LINES (bathymetric)       -->
  <!-- ============================================ -->
  <g fill="none" stroke="#0a3d5c" stroke-width="0.6" opacity="0.35" filter="url(#glow-subtle)">
    <!-- Mid-Atlantic Ridge -->
    <path d="M400,120 C405,160 410,200 408,240 C406,280 402,320 400,360 C398,400 400,440 406,480 C412,520 420,560 430,600 C436,630 440,660 442,700"/>
    <path d="M394,120 C399,160 404,200 402,240 C400,280 396,320 394,360 C392,400 394,440 400,480 C406,520 414,560 424,600 C430,630 434,660 436,700"/>
    <path d="M406,120 C411,160 416,200 414,240 C412,280 408,320 406,360 C404,400 406,440 412,480 C418,520 426,560 436,600 C442,630 446,660 448,700"/>
    <!-- East Pacific Rise -->
    <path d="M120,250 C125,290 128,330 130,370 C132,410 128,450 124,490 C120,530 116,570 118,610"/>
    <path d="M126,250 C131,290 134,330 136,370 C138,410 134,450 130,490 C126,530 122,570 124,610"/>
    <!-- Indian Ocean Ridge -->
    <path d="M680,380 C690,420 700,460 706,500 C710,530 708,560 700,590 C692,620 680,650 670,680"/>
    <path d="M686,380 C696,420 706,460 712,500 C716,530 714,560 706,590 C698,620 686,650 676,680"/>
  </g>

  <!-- ============================================ -->
  <!-- KENYA HIGHLIGHT ZONE                         -->
  <!-- ============================================ -->
  <g opacity="0.6">
    <ellipse cx="624" cy="352" rx="30" ry="25" fill="url(#kenya-glow)" filter="url(#glow-strong)"/>
  </g>

  <!-- ============================================ -->
  <!-- COORDINATE LABELS (subtle)                   -->
  <!-- ============================================ -->
  <g fill="#1a5a7a" font-family="'Courier New', monospace" font-size="9" opacity="0.4">
    <!-- Latitude labels -->
    <text x="22" y="103">60°N</text>
    <text x="22" y="203">40°N</text>
    <text x="22" y="303">20°N</text>
    <text x="22" y="403">0°</text>
    <text x="22" y="503">20°S</text>
    <text x="22" y="603">40°S</text>
    <text x="22" y="703">60°S</text>
    <!-- Longitude labels -->
    <text x="46" y="775" text-anchor="middle">180°W</text>
    <text x="146" y="775" text-anchor="middle">150°W</text>
    <text x="246" y="775" text-anchor="middle">120°W</text>
    <text x="346" y="775" text-anchor="middle">90°W</text>
    <text x="446" y="775" text-anchor="middle">60°W</text>
    <text x="546" y="775" text-anchor="middle">30°W</text>
    <text x="646" y="775" text-anchor="middle">0°</text>
    <text x="746" y="775" text-anchor="middle">30°E</text>
    <text x="846" y="775" text-anchor="middle">60°E</text>
    <text x="946" y="775" text-anchor="middle">90°E</text>
    <text x="1046" y="775" text-anchor="middle">120°E</text>
    <text x="1146" y="775" text-anchor="middle">150°E</text>
  </g>

  <!-- ============================================ -->
  <!-- SUBTLE NOISE/TEXTURE OVERLAY (dots)          -->
  <!-- ============================================ -->
  <g fill="#00bcd4" opacity="0.03">
    <circle cx="100" cy="100" r="1"/><circle cx="200" cy="150" r="1"/><circle cx="300" cy="100" r="1"/>
    <circle cx="400" cy="200" r="1"/><circle cx="500" cy="150" r="1"/><circle cx="600" cy="100" r="1"/>
    <circle cx="700" cy="200" r="1"/><circle cx="800" cy="150" r="1"/><circle cx="900" cy="100" r="1"/>
    <circle cx="1000" cy="200" r="1"/><circle cx="1100" cy="150" r="1"/>
    <circle cx="150" cy="300" r="1"/><circle cx="250" cy="350" r="1"/><circle cx="350" cy="300" r="1"/>
    <circle cx="450" cy="400" r="1"/><circle cx="550" cy="350" r="1"/><circle cx="650" cy="300" r="1"/>
    <circle cx="750" cy="400" r="1"/><circle cx="850" cy="350" r="1"/><circle cx="950" cy="300" r="1"/>
    <circle cx="1050" cy="400" r="1"/><circle cx="150" cy="500" r="1"/><circle cx="250" cy="550" r="1"/>
    <circle cx="350" cy="500" r="1"/><circle cx="450" cy="600" r="1"/><circle cx="550" cy="550" r="1"/>
    <circle cx="650" cy="500" r="1"/><circle cx="750" cy="600" r="1"/><circle cx="850" cy="550" r="1"/>
    <circle cx="950" cy="500" r="1"/><circle cx="1050" cy="600" r="1"/>
    <circle cx="150" cy="700" r="1"/><circle cx="350" cy="700" r="1"/><circle cx="550" cy="700" r="1"/>
    <circle cx="750" cy="700" r="1"/><circle cx="950" cy="700" r="1"/>
  </g>

  <!-- Vignette overlay -->
  <rect width="1200" height="800" fill="url(#vignette)"/>

  <!-- ============================================ -->
  <!-- FRAME BORDER                                 -->
  <!-- ============================================ -->
  <rect x="30" y="40" width="1140" height="720" fill="none" stroke="#1a5a7a" stroke-width="1" opacity="0.4"/>
  <rect x="32" y="42" width="1136" height="716" fill="none" stroke="#0d3d5c" stroke-width="0.5" opacity="0.3"/>

  <!-- Corner markers for surveying feel -->
  <g stroke="#00bcd4" stroke-width="1.5" opacity="0.4">
    <!-- Top-left -->
    <line x1="30" y1="55" x2="30" y2="40"/><line x1="30" y1="40" x2="45" y2="40"/>
    <!-- Top-right -->
    <line x1="1155" y1="40" x2="1170" y2="40"/><line x1="1170" y1="40" x2="1170" y2="55"/>
    <!-- Bottom-left -->
    <line x1="30" y1="745" x2="30" y2="760"/><line x1="30" y1="760" x2="45" y2="760"/>
    <!-- Bottom-right -->
    <line x1="1155" y1="760" x2="1170" y2="760"/><line x1="1170" y1="745" x2="1170" y2="760"/>
  </g>

  <!-- Tick marks along borders -->
  <g stroke="#1a5a7a" stroke-width="0.8" opacity="0.3">
    <!-- Top ticks -->
    <line x1="150" y1="40" x2="150" y2="48"/><line x1="250" y1="40" x2="250" y2="48"/>
    <line x1="350" y1="40" x2="350" y2="48"/><line x1="450" y1="40" x2="450" y2="48"/>
    <line x1="550" y1="40" x2="550" y2="48"/><line x1="650" y1="40" x2="650" y2="48"/>
    <line x1="750" y1="40" x2="750" y2="48"/><line x1="850" y1="40" x2="850" y2="48"/>
    <line x1="950" y1="40" x2="950" y2="48"/><line x1="1050" y1="40" x2="1050" y2="48"/>
    <!-- Bottom ticks -->
    <line x1="150" y1="752" x2="150" y2="760"/><line x1="250" y1="752" x2="250" y2="760"/>
    <line x1="350" y1="752" x2="350" y2="760"/><line x1="450" y1="752" x2="450" y2="760"/>
    <line x1="550" y1="752" x2="550" y2="760"/><line x1="650" y1="752" x2="650" y2="760"/>
    <line x1="750" y1="752" x2="750" y2="760"/><line x1="850" y1="752" x2="850" y2="760"/>
    <line x1="950" y1="752" x2="950" y2="760"/><line x1="1050" y1="752" x2="1050" y2="760"/>
    <!-- Left ticks -->
    <line x1="30" y1="100" x2="38" y2="100"/><line x1="30" y1="200" x2="38" y2="200"/>
    <line x1="30" y1="300" x2="38" y2="300"/><line x1="30" y1="400" x2="38" y2="400"/>
    <line x1="30" y1="500" x2="38" y2="500"/><line x1="30" y1="600" x2="38" y2="600"/>
    <line x1="30" y1="700" x2="38" y2="700"/>
    <!-- Right ticks -->
    <line x1="1162" y1="100" x2="1170" y2="100"/><line x1="1162" y1="200" x2="1170" y2="200"/>
    <line x1="1162" y1="300" x2="1170" y2="300"/><line x1="1162" y1="400" x2="1170" y2="400"/>
    <line x1="1162" y1="500" x2="1170" y2="500"/><line x1="1162" y1="600" x2="1170" y2="600"/>
    <line x1="1162" y1="700" x2="1170" y2="700"/>
  </g>

  <!-- "SURVEY GRADE" watermark text -->
  <text x="1150" y="58" text-anchor="end" fill="#1a5a7a" font-family="'Courier New', monospace" font-size="8" opacity="0.3" letter-spacing="2">WGS 84 / UTM</text>
  <text x="1150" y="68" text-anchor="end" fill="#1a5a7a" font-family="'Courier New', monospace" font-size="7" opacity="0.25" letter-spacing="1">TOPOGRAPHIC SURVEY</text>

</svg>